# Blender v3.0.0 OBJ File: 'Plan.blend'
# www.blender.org
mtllib Plan.mtl
o Plane
v -1000.000000 0.000000 1000.000000
v 1000.000000 0.000000 1000.000000
v -1000.000000 0.000000 -1000.000000
v 1000.000000 0.000000 -1000.000000
v -1000.000000 0.000000 0.000000
v 0.000000 0.000000 1000.000000
v 1000.000000 0.000000 0.000000
v 0.000000 0.000000 -1000.000000
v 0.000000 0.000000 0.000000
v -1000.000000 0.000000 500.000000
v 500.000000 0.000000 1000.000000
v 1000.000000 0.000000 -500.000000
v -500.000000 0.000000 -1000.000000
v -1000.000000 0.000000 -500.000000
v -500.000000 0.000000 1000.000000
v 1000.000000 0.000000 500.000000
v 500.000000 0.000000 -1000.000000
v 0.000000 0.000000 -500.000000
v 0.000000 0.000000 500.000000
v -500.000000 0.000000 0.000000
v 500.000000 0.000000 0.000000
v 500.000000 0.000000 500.000000
v -500.000000 0.000000 500.000000
v -500.000000 0.000000 -500.000000
v 500.000000 0.000000 -500.000000
v 0.000000 0.000000 250.000000
v 250.000000 0.000000 0.000000
v 500.000000 0.000000 250.000000
v 250.000000 0.000000 500.000000
v 250.000000 0.000000 250.000000
v 0.000000 0.000000 125.000000
v 125.000000 0.000000 0.000000
v 250.000000 0.000000 125.000000
v 125.000000 0.000000 250.000000
v 125.000000 0.000000 125.000000
v 0.000000 0.000000 62.500000
v 62.500000 0.000000 0.000000
v 125.000000 0.000000 62.500000
v 62.500000 0.000000 125.000000
v 62.500000 0.000000 62.500000
v 0.000000 0.000000 31.250000
v 31.250000 0.000000 0.000000
v 62.500000 0.000000 31.250000
v 31.250000 0.000000 62.500000
v 31.250000 0.000000 31.250000
v 0.000000 0.000000 15.625000
v 15.625000 0.000000 0.000000
v 31.250000 0.000000 15.625000
v 15.625000 0.000000 31.250000
v 15.625000 0.000000 15.625000
v 0.000000 -1.419813 15.625000
v 0.000000 -1.419813 0.000000
v 15.625000 -1.419813 0.000000
v 15.625000 -1.419813 15.625000
vt 0.750000 0.750000
vt 1.000000 0.750000
vt 1.000000 1.000000
vt 0.750000 1.000000
vt 0.250000 0.750000
vt 0.500000 0.750000
vt 0.500000 1.000000
vt 0.250000 1.000000
vt 0.250000 0.250000
vt 0.500000 0.250000
vt 0.500000 0.375000
vt 0.500000 0.437500
vt 0.500000 0.468750
vt 0.500000 0.484375
vt 0.500000 0.492188
vt 0.500000 0.500000
vt 0.250000 0.500000
vt 0.750000 0.250000
vt 1.000000 0.250000
vt 1.000000 0.500000
vt 0.750000 0.500000
vt 0.750000 0.375000
vt 0.625000 0.375000
vt 0.625000 0.500000
vt 0.625000 0.437500
vt 0.500000 0.000000
vt 0.750000 0.000000
vt 0.625000 0.250000
vt 1.000000 0.000000
vt 0.000000 0.250000
vt 0.000000 0.500000
vt 0.000000 0.000000
vt 0.250000 0.000000
vt 0.000000 0.750000
vt 0.000000 1.000000
vt 0.507812 0.500000
vt 0.515625 0.500000
vt 0.531250 0.500000
vt 0.562500 0.500000
vt 0.562500 0.437500
vt 0.562500 0.468750
vt 0.562500 0.375000
vt 0.531250 0.468750
vt 0.531250 0.484375
vt 0.531250 0.437500
vt 0.515625 0.484375
vt 0.515625 0.492188
vt 0.515625 0.468750
vt 0.507812 0.492188
vt 0.507812 0.484375
vt 0.507812 0.492188
vt 0.500000 0.492188
vt 0.507812 0.500000
vt 0.500000 0.500000
vn 0.0000 1.0000 0.0000
vn 0.0000 0.0000 -1.0000
vn -1.0000 0.0000 0.0000
vn 0.0000 0.0000 1.0000
vn 1.0000 0.0000 0.0000
usemtl None
s off
f 25/1/1 12/2/1 4/3/1 17/4/1
f 24/5/1 18/6/1 8/7/1 13/8/1
f 23/9/1 19/10/1 26/11/1 31/12/1 36/13/1 41/14/1 46/15/1 9/16/1 20/17/1
f 22/18/1 16/19/1 7/20/1 21/21/1 28/22/1
f 30/23/1 28/22/1 21/21/1 27/24/1 33/25/1
f 6/26/1 11/27/1 22/18/1 29/28/1 19/10/1
f 11/27/1 2/29/1 16/19/1 22/18/1
f 10/30/1 23/9/1 20/17/1 5/31/1
f 1/32/1 15/33/1 23/9/1 10/30/1
f 15/33/1 6/26/1 19/10/1 23/9/1
f 14/34/1 24/5/1 13/8/1 3/35/1
f 5/31/1 20/17/1 24/5/1 14/34/1
f 20/17/1 9/16/1 18/6/1 24/5/1
f 18/6/1 25/1/1 17/4/1 8/7/1
f 9/16/1 47/36/1 42/37/1 37/38/1 32/39/1 27/24/1 21/21/1 25/1/1 18/6/1
f 21/21/1 7/20/1 12/2/1 25/1/1
f 35/40/1 33/25/1 27/24/1 32/39/1 38/41/1
f 19/10/1 29/28/1 30/23/1 34/42/1 26/11/1
f 29/28/1 22/18/1 28/22/1 30/23/1
f 40/43/1 38/41/1 32/39/1 37/38/1 43/44/1
f 26/11/1 34/42/1 35/40/1 39/45/1 31/12/1
f 34/42/1 30/23/1 33/25/1 35/40/1
f 45/46/1 43/44/1 37/38/1 42/37/1 48/47/1
f 31/12/1 39/45/1 40/43/1 44/48/1 36/13/1
f 39/45/1 35/40/1 38/41/1 40/43/1
f 50/49/1 48/47/1 42/37/1 47/36/1
f 36/13/1 44/48/1 45/46/1 49/50/1 41/14/1
f 44/48/1 40/43/1 43/44/1 45/46/1
f 46/15/2 50/49/2 54/51/2 51/52/2
f 41/14/1 49/50/1 50/49/1 46/15/1
f 49/50/1 45/46/1 48/47/1 50/49/1
f 51/52/1 54/51/1 53/53/1 52/54/1
f 50/49/3 47/36/3 53/53/3 54/51/3
f 47/36/4 9/16/4 52/54/4 53/53/4
f 9/16/5 46/15/5 51/52/5 52/54/5
